<?xml version="1.0" encoding="UTF-8"?><svg xmlns="http://www.w3.org/2000/svg" viewBox="0 0 500 496.53"><defs><style>.d{fill:#189ab6;}.e{fill:#415870;}.f{opacity:.25;}</style></defs><g id="a"/><g id="b"><g id="c"><g class="f"><path class="e" d="M120.87,238.05c1.12-5.04,2.46-10.03,4.01-14.96,1.55-4.92,3.31-9.78,5.26-14.56,1.96-4.78,4.12-9.47,6.48-14.06,2.36-4.6,4.91-9.08,7.65-13.46,2.64-4.2,5.43-8.31,8.37-12.31,2.94-4,6.03-7.88,9.26-11.65,3.22-3.77,6.59-7.42,10.09-10.95,3.49-3.52,7.12-6.91,10.87-10.16-2.87,2.49-5.67,5.06-8.39,7.72-2.72,2.65-5.36,5.39-7.93,8.19s-5.04,5.68-7.45,8.64c-2.4,2.95-4.71,5.97-6.93,9.04,1.57-2.2,3.2-4.35,4.89-6.47s3.42-4.18,5.22-6.21c1.79-2.03,3.63-4,5.53-5.93,1.89-1.93,3.84-3.81,5.83-5.64,2.01-1.84,4.07-3.63,6.18-5.36,2.1-1.74,4.25-3.42,6.44-5.04s4.42-3.19,6.69-4.7,4.58-2.97,6.92-4.36c-.83,.82-1.67,1.63-2.52,2.43s-1.72,1.58-2.59,2.35-1.76,1.53-2.65,2.28c-.89,.75-1.8,1.48-2.72,2.21-3.82,3.28-7.08,6.56-7.59,8.59-5.05,4.56-9.88,9.36-14.46,14.39-4.59,5.02-8.94,10.26-13.04,15.69-4.09,5.44-7.92,11.06-11.48,16.86-3.56,5.8-6.84,11.77-9.83,17.88-3,6.13-5.69,12.43-8.05,18.84-2.36,6.41-4.39,12.94-6.08,19.56-3.38,13.25-5.41,26.81-6.03,40.47-.58-2.26-1.01-4.55-1.27-6.87s-.36-4.65-.29-6.99c.12-4.67,.91-9.3,2.32-13.76,2.31-7.78,5.56-14.37,7.31-21.7M255.47,102.27c-5.09,1.61-10.12,3.38-15.09,5.33,1.21-.56,2.44-1.09,3.68-1.59s2.48-.97,3.74-1.42,2.53-.86,3.81-1.25,2.57-.75,3.86-1.07m63.55,356.74c5.58-.61,11.12-1.46,16.4-2.31-1.34,.32-2.7,.6-4.05,.86-1.36,.25-2.72,.48-4.1,.67-1.37,.19-2.74,.35-4.11,.48s-2.75,.23-4.13,.3m-189.53-150.53l2.45,9.11c.88,5.95,2.04,11.85,3.5,17.69,1.45,5.83,3.17,11.6,5.18,17.27,4.01,11.35,9.1,22.28,15.21,32.65-1.8-2.9-3.54-5.85-5.21-8.83-1.66-2.99-3.26-6.01-4.79-9.07-1.52-3.06-2.97-6.15-4.35-9.28-1.38-3.12-2.68-6.28-3.91-9.48s-2.32-6.44-3.28-9.72c-.95-3.29-1.77-6.61-2.45-9.96-.68-3.36-1.22-6.74-1.61-10.14-.4-3.4-.65-6.82-.75-10.24m3.82-25.5c.03-5.78,.44-11.56,1.21-17.29,.77-5.73,1.91-11.41,3.41-16.99,1.49-5.59,3.35-11.07,5.54-16.42,2.2-5.34,4.74-10.55,7.6-15.57-2.73,5.09-5.16,10.32-7.29,15.69-2.12,5.37-3.93,10.85-5.43,16.42-1.5,5.58-2.67,11.23-3.51,16.94-.84,5.71-1.35,11.46-1.54,17.23m301.55,76.33c-.46-.16-.59-.67-.57-1.28,.04-.13,.09-.26,.12-.4,.03-.14,.06-.27,.08-.41s.03-.28,.03-.42c0-.14,0-.28,0-.41,1.08-1.59,2.13-3.21,3.16-4.84,1.02-1.63,2.01-3.29,2.97-4.96,.95-1.67,1.88-3.36,2.77-5.06,.9-1.71,1.76-3.43,2.58-5.17-.04,.48-.1,.96-.17,1.44-.06,.48-.14,.96-.22,1.44s-.17,.95-.27,1.42c-.1,.47-.21,.94-.33,1.41-.39,.71-.79,1.41-1.21,2.1-.84,1.39-1.73,2.74-2.68,4.05-.48,.66-.97,1.3-1.47,1.94-.5,.7-.97,1.42-1.42,2.15-.45,.73-.87,1.48-1.27,2.24-.4,.77-.77,1.54-1.11,2.33-.34,.78-.66,1.59-.95,2.4m-122.02,100.12l-.59,.25c-1.92,.13-3.83,.26-5.71,.33l-.69-.16c2.33-.16,4.64-.31,6.99-.41m116.51-91.92c-.2-.11-.4-.21-.61-.29-.21-.08-.43-.15-.65-.2s-.45-.09-.67-.11-.45-.02-.68,0c2.7-3.28,5.28-6.79,7.69-10.35l-.06,.38c-.02,.13-.04,.25-.05,.38-.02,.13-.03,.26-.04,.38-.01,.13-.02,.26-.03,.38-.87,2.82-4.05,6.14-4.92,9.43m-80.29,50.18c-2.52,.8-4.35,3.13-5.48,3.9-7.05,.48-14.01,.51-22.04,.45-1.21,.59-3.82,.8-6.28,1.82-1.51-.69-3.1-1.25-4.77-1.82,4.53,.05,9.06-.11,13.57-.49,4.52-.38,9.01-.97,13.47-1.76s8.88-1.8,13.25-3.01,8.67-2.62,12.9-4.23c-1.17,.53-2.36,1.05-3.55,1.53-1.2,.49-2.4,.94-3.62,1.37-1.22,.43-2.45,.83-3.68,1.2-1.23,.38-2.48,.72-3.73,1.04"/><path class="e" d="M268.04,129.68c13.4-4.33,28.72-5.66,43.62-5.08,14.91,.57,29.52,2.75,43.42,4.18-15.12-6-34.52-9.38-50.84-10.25-16.31-.87-29.32-.23-32.71-3.51s8.33-6.56,24.59-7.18c2.17-.06,4.34-.08,6.5-.06,2.17,.03,4.33,.09,6.5,.2,2.16,.11,4.33,.26,6.49,.45,2.16,.19,4.32,.43,6.47,.7,8.71,1.05,16.99,2.69,23.7,3.97q-3.39-1.52-6.84-2.95c3.46,1.42,6.84,2.9,10.18,2.72-3.25-1.45-6.57-2.76-9.94-3.93-1.12-.39-2.25-.77-3.38-1.12-4.82-1.64-9.35-3.1-11.33-4.51,2.28-.48,4.55-.85,6.87-1.23-9.25-4.07-23.47-6.56-37.95-6.97-14.48-.41-29.12,.88-39.85,1.05,6.66-.76,13.34-1.27,20.04-1.54,6.69-.27,13.4-.28,20.1-.05,6.69,.23,13.38,.72,20.04,1.44,6.66,.73,13.29,1.71,19.88,2.93,7.06,1.34,14.06,3.04,20.96,5.07,6.9,2.03,13.69,4.4,20.36,7.1,6.66,2.7,13.19,5.74,19.56,9.08,6.37,3.35,12.56,7.01,18.57,10.97,6.25,4.13,12.27,8.61,18.01,13.43s11.2,9.95,16.35,15.4c5.15,5.44,9.99,11.17,14.48,17.17,4.49,6,8.64,12.24,12.43,18.71,3.76,6.45,7.13,13.12,10.09,19.97s5.5,13.87,7.61,21.03c2.12,7.16,3.8,14.43,5.04,21.79s2.04,14.78,2.4,22.24c1.11,15.86,.48,31.79-1.89,47.51-2.37,15.72-6.46,31.13-12.19,45.96-5.73,14.82-13.08,28.97-21.91,42.19-8.83,13.22-19.08,25.43-30.57,36.4-1.72,1.44-3.49,2.83-5.29,4.17-1.8,1.35-3.63,2.65-5.5,3.89-3.74,2.5-7.61,4.8-11.59,6.88-2.44,1.31-4.91,2.57-7.4,3.77-2.5,1.2-5.02,2.34-7.56,3.42-2.55,1.09-5.12,2.11-7.72,3.07-2.59,.97-5.21,1.88-7.85,2.72-33.06,13.25-69.81,17.91-105.95,14.65-38.44-4.92-74.47-22.25-103.31-48.07-28.84-25.82-51.11-60.27-63.46-99.46-2.55-7.79-2.82-17.75-1.15-20.69,.82-1.47,2.04-1.24,3.7,1.64s3.79,8.53,7.2,17.58c2.95,7.43,6.27,14.7,9.95,21.79,3.67,7.09,7.7,13.99,12.06,20.69,4.36,6.69,9.06,13.15,14.06,19.38,5.01,6.22,10.32,12.19,15.93,17.88-2.16-.47-5.69-3.69-9.21-7.5-.79-.91-1.59-1.81-2.4-2.7-1.63-1.78-3.3-3.52-5.02-5.21-.86-.84-1.73-1.67-2.62-2.5,1.56,2.35,3.17,4.66,4.85,6.92,1.67,2.27,3.41,4.49,5.2,6.67,1.79,2.18,3.63,4.32,5.53,6.4,1.89,2.08,3.84,4.12,5.84,6.11,1.99,1.97,4.02,3.89,6.1,5.75,2.08,1.87,4.22,3.68,6.39,5.44,2.17,1.76,4.39,3.46,6.65,5.1s4.57,3.23,6.91,4.75c-6.6-4.29-12.94-8.97-18.99-14-3.03-2.52-5.98-5.11-8.86-7.8-2.88-2.68-5.68-5.46-8.39-8.3,3.53,3.72,7.21,7.31,11.01,10.75,3.79,3.44,7.72,6.75,11.77,9.9s8.2,6.16,12.47,9.01c4.26,2.85,8.63,5.54,13.1,8.07,9.31,5.27,19.06,9.73,29.14,13.35,5.03,1.81,10.14,3.41,15.3,4.78s10.39,2.53,15.66,3.46c7.69,1.47,14.68,4.44,22.83,6.43,2.33,.61,4.7,1.07,7.09,1.36,2.4,.29,4.8,.41,7.21,.37,2.41-.04,4.82-.24,7.2-.62,2.38-.37,4.74-.91,7.04-1.61-7.07,.01-14.14-.34-21.17-1.05-7.03-.72-14.03-1.79-20.95-3.21-6.92-1.43-13.77-3.21-20.51-5.34-6.74-2.13-13.37-4.61-19.86-7.42-6.46-2.8-12.78-5.91-18.95-9.31-6.17-3.4-12.17-7.1-17.98-11.08-5.81-3.98-11.43-8.23-16.84-12.74-5.41-4.52-10.59-9.28-15.55-14.29,.03,0,.06,0,.08,0h.17s.05,0,.08,0c-4.27-4.23-8.32-8.66-12.17-13.27-3.84-4.61-7.47-9.4-10.87-14.35-3.4-4.95-6.57-10.06-9.49-15.3-2.92-5.25-5.59-10.63-8.01-16.13,3.28,6.74,7.28,13.32,10.26,19.24-15.81-31.49-24.37-65.45-24.07-99.78,.52,6.08,1.29,12.14,2.29,18.17,1.01,6.02,2.26,12.01,3.74,17.93,1.49,5.93,3.21,11.79,5.16,17.58,1.96,5.79,4.14,11.49,6.55,17.1,4.89,11.42,10.81,22.37,17.69,32.72,3.44,5.17,7.11,10.18,11,15.02,3.89,4.84,8,9.5,12.31,13.96,13,13.46,27.91,24.95,44.25,34.09,5.44,3.04,11.02,5.81,16.73,8.31,11.14,4.85,22.75,8.54,34.65,11,5.95,1.24,11.96,2.16,18,2.77,6.05,.61,12.11,.91,18.19,.9-13.25-2.31-28.49-3.89-43.1-7.45-14.61-3.56-28.35-9-37.34-16.5,9.62,4.97,19.64,9.12,29.96,12.41,10.31,3.3,20.89,5.72,31.61,7.24,10.72,1.53,21.55,2.15,32.38,1.87,10.82-.29,21.6-1.48,32.23-3.57l-9.33,2.8c3.53-.28,7.04-.7,10.53-1.28,3.49-.57,6.96-1.29,10.39-2.15,3.43-.87,6.83-1.87,10.18-3.01,3.34-1.15,6.65-2.43,9.89-3.84,3.26-1.42,6.47-2.92,9.65-4.49,3.18-1.57,6.32-3.22,9.42-4.95,3.1-1.72,6.16-3.52,9.18-5.39,3.02-1.87,5.99-3.81,8.91-5.82,2.06-1.36,4.11-2.74,6.15-4.2l-6.15,4.2c-5.22,3.42-10.6,6.58-16.12,9.48-5.53,2.9-11.18,5.53-16.96,7.88-5.78,2.35-11.66,4.42-17.64,6.2-5.98,1.79-12.04,3.28-18.16,4.47,10.73-3.28,22.01-6.81,35.21-12.04-7.66,1.64-18.15,4.75-28.88,6.81-3.44,.88-6.92,1.67-10.42,2.35s-7.01,1.25-10.54,1.72c-3.53,.46-7.07,.83-10.63,1.09-3.55,.25-7.11,.4-10.67,.45,5.24-.19,10.46-.66,15.64-1.42,10.38-1.5,20.56-4.11,30.38-7.78,4.91-1.84,9.71-3.93,14.4-6.28-27.62,8.94-57.83,12.7-86.41,8.2,3.93,.4,7.86,.66,11.8,.79,3.94,.13,7.88,.13,11.82-.01,3.95-.14,7.88-.41,11.8-.81,3.92-.4,7.83-.94,11.72-1.61,6.65-.78,13.25-1.94,19.78-3.48,13.05-3.08,25.7-7.66,37.7-13.64,6-2.99,11.81-6.32,17.42-9.98l-2.51,1.86c1.74-1.14,3.41-2.36,5.09-3.56,2.21-1.51,4.38-3.07,6.52-4.68,2.14-1.61,4.24-3.27,6.3-4.97,2.06-1.71,4.08-3.47,6.06-5.27,1.98-1.81,3.91-3.66,5.81-5.55,4.89-5.22,9.22-10.94,12.91-17.05,1.24-2.04,2.4-4.11,3.48-6.23l2.64-3.9c-1.05,2.89-1.24,4.57,2.35,0,1.96-2.58,3.81-5.24,5.54-7.97s3.36-5.53,4.87-8.39c1.51-2.86,2.9-5.78,4.18-8.76,1.27-2.97,2.42-6,3.44-9.07,4.56-12.66,7.9-26.04,11.48-40.01,1.85-7.36,2.3-17.65,1.38-28.57,.12-.49,.2-.99,.23-1.49,.04-.5,.03-1.01-.02-1.51s-.14-1-.28-1.49c-.14-.48-.31-.96-.53-1.42-.26-2.35-.59-4.7-.95-7.05-.14-1.44-.31-2.87-.51-4.3s-.43-2.85-.69-4.27-.56-2.83-.88-4.23-.68-2.8-1.07-4.19c1.13,5.51,2.26,11.22,3.15,16.99l.65,6.46c-.27-.46-.51-.94-.73-1.44-.22-.49-.41-.99-.58-1.51s-.3-1.03-.41-1.56-.18-1.06-.23-1.6c.4,5.01,.58,10.03,.55,15.05-.03,5.02-.28,10.04-.73,15.04s-1.12,9.98-1.99,14.93c-.88,4.94-1.96,9.85-3.25,14.7-1.32,4.94-2.83,9.82-4.54,14.63-1.71,4.82-3.61,9.56-5.7,14.22s-4.37,9.23-6.82,13.71c-2.46,4.47-5.1,8.85-7.91,13.12,.82-2.4,2.16-5.66,2.54-7.11-1.56,3.74-3.27,7.38-5.18,11.01-1.89,2.73-3.86,5.42-5.89,8.05s-4.13,5.22-6.29,7.75c-2.16,2.53-4.39,5.01-6.67,7.42-2.28,2.42-4.64,4.78-7.04,7.08,.63-.68,1.23-1.37,1.81-2.08,1.17-1.43,2.25-2.92,3.24-4.47,.5-.77,.97-1.56,1.42-2.36-3.34,3.31-6.81,6.5-10.39,9.55-3.58,3.05-7.28,5.97-11.08,8.74-3.8,2.77-7.71,5.4-11.7,7.88-4,2.48-8.09,4.81-12.27,6.99-4.2,2.18-8.49,4.2-12.86,6.05-4.36,1.85-8.79,3.53-13.28,5.04s-9.04,2.85-13.64,4c-4.6,1.16-9.23,2.14-13.91,2.94-8.72,1.02-17.51,1.38-26.28,1.09s-17.52-1.22-26.16-2.81c-8.64-1.58-17.15-3.8-25.45-6.64-8.31-2.84-16.4-6.3-24.19-10.34,4.16,2.63,8.45,5.04,12.85,7.23,4.41,2.18,8.93,4.13,13.54,5.83,4.62,1.7,9.31,3.16,14.08,4.37,4.77,1.2,9.6,2.16,14.46,2.86-6.75-.68-13.45-1.75-20.07-3.22-6.62-1.47-13.15-3.33-19.55-5.57-6.4-2.24-12.66-4.86-18.75-7.84-6.09-2.98-12-6.32-17.69-10-5.69-3.66-11.14-7.66-16.33-11.99-5.19-4.33-10.1-8.98-14.71-13.92s-8.91-10.17-12.87-15.64-7.58-11.19-10.83-17.11c7.28,6.94,16.74,16.17,23.31,18.14,.92-1.35-8.47-14.58-1.88-7.73,12.44,11.92,23.35,21.41,33.35,28,10,6.59,19.09,9.97,27.16,8.53,1.64-.64-4.4-7.1-8.59-13.32-4.2-6.22-6.91-11.85-2.07-9.55,2.99,1.72,6.02,3.37,9.11,4.92,3.08,1.54,6.21,3,9.38,4.36,6.34,2.72,12.84,5.05,19.46,6.99,1.17,.45,2.35,.88,3.54,1.29,1.19,.41,2.38,.79,3.59,1.15,1.2,.36,2.41,.7,3.63,1.01s2.44,.61,3.67,.87c.6,.33,1.79,0,3.28-.38,17.87,3.02,35.08,1.86,44.57,1,3.54-.25,7.05-.73,10.54-1.27,.43,.02,.86,.05,1.29,.1,.43,.05,.85,.12,1.28,.2,.42,.08,.84,.18,1.26,.3,.41,.12,.83,.25,1.23,.4,2.02-1.23,4.05-2.35,6.08-3.28,2.29-.58,4.56-1.23,6.81-1.93,2.25-.71,4.48-1.47,6.7-2.3,2.21-.83,4.4-1.72,6.55-2.67,2.16-.95,4.3-1.96,6.4-3.02,1.25-.43,2.5-.88,3.74-1.35,1.24-.47,2.47-.96,3.69-1.47,1.22-.51,2.44-1.04,3.64-1.59s2.4-1.13,3.58-1.72c-.46-.46-1.64-.65-1.16-1.74,2.44-1.62,4.83-3.34,7.16-5.12s4.6-3.64,6.81-5.58,4.35-3.95,6.42-6.02,4.08-4.22,6.02-6.43c.87-.75,1.74-1.47,2.63-2.19s1.79-1.42,2.71-2.1,1.84-1.35,2.78-2c.94-.65,1.89-1.29,2.85-1.91,1.51-6.92,6.71-16.04,11.48-26.62,4.77-10.58,8.94-22.44,10.26-32.66h-.21c.48-2.57,.88-5.14,1.21-7.73s.6-5.19,.79-7.78c.19-2.6,.31-5.21,.37-7.82,.05-2.61,.03-5.22-.06-7.83,.46-1.76,.98-3.46,1.64-5.08-1.13-2.55-1.49-5.28-2.13-6.56-.36-8.47-.77-15.75-1.64-23.11-.83-1.15-3.28-3-4.23-5.61-.4-1.29-.83-2.57-1.28-3.84-.46-1.27-.93-2.54-1.44-3.79s-1.05-2.5-1.61-3.73-1.15-2.45-1.76-3.66c-.63-1.43-1.28-2.85-1.94-4.27-.67-1.41-1.36-2.81-2.07-4.2-.71-1.39-1.44-2.77-2.19-4.14-.75-1.37-1.52-2.73-2.31-4.08-2.69-4.6-5.61-9.06-8.76-13.37-3.14-4.31-6.51-8.45-10.07-12.41-3.57-3.96-7.34-7.74-11.29-11.32s-8.09-6.95-12.39-10.1c-.05-.45-.04-.91,.03-1.35,.04-.23,.09-.45,.16-.66s.15-.43,.25-.63c-3.44-.81-7.08-3.92-10.07-4.73,.64,0,1.13-.14,1.26-.6-.85-.28-1.7-.58-2.54-.91-.83-.33-1.66-.68-2.47-1.07-.82-.38-1.62-.78-2.41-1.22-.78-.43-1.56-.89-2.32-1.37-.69-.5-1.39-.97-2.09-1.44s-1.43-.92-2.16-1.35-1.47-.85-2.21-1.25c-.75-.4-1.5-.79-2.26-1.16-.49-.1-.98-.19-1.48-.28-.5-.08-1-.16-1.5-.23-.5-.06-1-.12-1.5-.17s-1-.09-1.51-.12c-.92-.4-1.84-.72-2.75-1.1-8.69-6.72-19.37-7.55-30.72-8.58-2.87-.49-5.75-.9-8.64-1.22s-5.8-.57-8.7-.73c-2.9-.17-5.81-.25-8.72-.25s-5.82,.08-8.73,.24c-9.26,.69-13.32-.97-20.17-.9"/><path class="e" d="M447.14,333.84c1.05-2.32,2.04-4.66,2.97-7.03,.92-2.37,1.79-4.77,2.6-7.18,1.6-4.83,2.96-9.74,4.06-14.71-1.47,10.79-2.67,20.97-9.63,28.92h0Zm-221.61,61.74c-.53-.95-1.08-1.89-1.65-2.83-.56-.93-1.15-1.86-1.75-2.77-.6-.92-1.22-1.81-1.85-2.7s-1.28-1.78-1.94-2.64c4.35,4.15,8.97,8.01,13.83,11.55,4.87,3.53,9.96,6.74,15.25,9.58,5.29,2.85,10.78,5.34,16.4,7.46,5.63,2.11,11.39,3.85,17.25,5.19v.2c-9.66-1.64-20.86-6.18-30.62-11.19-9.75-5-18.32-10.24-24.93-11.86h0Zm208.69-37.55c0-.13,.02-.25,.03-.38l.04-.38c.02-.13,.03-.25,.05-.38s.04-.26,.06-.38c.02,.42-.02,.83-.11,1.24-.03,.14-.08,.27-.12,.4m-268.8,21.24l-1.52-2.51c2.14,3.08,4.36,6.09,6.67,9.04,1.15,1.47,2.32,2.93,3.52,4.37,1.19,1.44,2.4,2.87,3.64,4.27-1.15-1.15-2.28-2.33-3.37-3.54s-2.15-2.45-3.17-3.72c-1.03-1.27-2.02-2.56-2.98-3.88-.96-1.32-1.89-2.67-2.78-4.03m-24.21-75.68c-.47-3.76-.82-7.54-1.03-11.32-.22-3.79-.31-7.58-.27-11.37,.04-3.79,.21-7.58,.51-11.36,.29-3.78,.72-7.55,1.27-11.3,.9-4.64,2.03-9.23,3.41-13.76,1.37-4.52,2.99-8.97,4.84-13.32,1.84-4.35,3.93-8.6,6.22-12.73s4.81-8.14,7.53-12.01c-4.22,7.31-7.89,14.92-10.98,22.77-3.1,7.85-5.61,15.92-7.51,24.14-1.9,8.22-3.19,16.57-3.86,24.98-.67,8.41-.72,16.86-.14,25.28m54.56,55.92c-.51-1.16-.99-2.33-1.46-3.5s-.91-2.36-1.34-3.54c-.43-1.19-.83-2.39-1.21-3.59s-.75-2.41-1.09-3.63c.51,1.12,1.03,2.25,1.57,3.36,.54,1.11,1.1,2.21,1.67,3.31,.57,1.1,1.16,2.18,1.77,3.26,.6,1.08,1.22,2.15,1.86,3.21-1.02-.46-1.31,.66-1.78,1.09m13.56,63.87l-3.64-2.71c3.41,1.94,6.87,3.76,10.4,5.4-1.39-.43-4.5-1.81-6.76-2.69m-28.6-114.4c.4,3.59,.94,7.16,1.64,10.71-.9-2-1.86-3.96-2.99-5.92,.17-.38,.32-.77,.46-1.16,.14-.39,.26-.78,.37-1.19s.19-.81,.27-1.22,.14-.82,.18-1.23m1.95-55.42c.31-1.16,.63-2.31,.98-3.45s.73-2.28,1.12-3.41c.4-1.12,.81-2.25,1.25-3.36s.9-2.21,1.38-3.31c-.45,1.36-.88,2.73-1.3,4.11-.41,1.37-.81,2.75-1.18,4.14-.38,1.39-.73,2.78-1.06,4.18s-.65,2.8-.93,4.2c-.31-1.41-.6-2.56-.26-3.11"/></g><g class="f"><path class="d" d="M226.04,26.82c3.67,1.6,7.28,3.36,10.8,5.26,3.53,1.9,6.97,3.96,10.32,6.15,3.35,2.2,6.6,4.54,9.76,7.01,3.16,2.48,6.2,5.08,9.13,7.82,2.81,2.63,5.52,5.37,8.13,8.2,2.61,2.84,5.11,5.76,7.5,8.78s4.67,6.13,6.83,9.31c2.16,3.19,4.2,6.45,6.12,9.79-1.48-2.55-3.03-5.05-4.65-7.51s-3.32-4.87-5.09-7.23-3.59-4.67-5.49-6.92c-1.89-2.25-3.86-4.45-5.88-6.59,1.44,1.52,2.84,3.09,4.2,4.68,1.36,1.6,2.68,3.23,3.95,4.89,1.28,1.66,2.51,3.36,3.7,5.09,1.19,1.72,2.33,3.49,3.43,5.27,1.1,1.81,2.16,3.64,3.16,5.49,1.01,1.86,1.98,3.74,2.89,5.65,.92,1.9,1.78,3.83,2.6,5.78,.82,1.95,1.59,3.92,2.3,5.91-.5-.75-.99-1.52-1.47-2.28s-.95-1.54-1.41-2.32c-.46-.78-.9-1.57-1.34-2.36-.44-.79-.86-1.59-1.27-2.4-1.92-3.28-3.92-6.35-5.44-7.04-2.72-4.52-5.66-8.91-8.79-13.15-3.14-4.24-6.48-8.33-10.01-12.26-7.07-7.85-14.87-15.01-23.29-21.38-4.22-3.2-8.61-6.17-13.14-8.92-4.53-2.75-9.2-5.26-13.99-7.53-4.79-2.27-9.68-4.3-14.68-6.07-5-1.77-10.08-3.28-15.23-4.53,1.81-.11,3.62-.1,5.43,.04,1.8,.14,3.59,.41,5.36,.81,1.76,.39,3.5,.91,5.19,1.55,1.69,.64,3.34,1.39,4.93,2.26,5.59,2.92,10.12,6.39,15.45,8.79m83.55,122.66c-.48-4.22-1.09-8.2-1.82-12.29,.24,1.01,.47,2.02,.67,3.04,.2,1.02,.38,2.04,.53,3.07,.15,1.02,.28,2.05,.38,3.09,.11,1.03,.18,2.06,.24,3.1m-281.1-4.46c-.36,4.33-.54,8.67-.67,12.88-.04-1.08-.07-2.15-.06-3.23,.02-3.23,.26-6.45,.73-9.65M171.14,23.02l-7.28,.51c-4.66-.21-9.33-.19-13.99,.05-4.66,.24-9.3,.71-13.92,1.4-4.62,.68-9.19,1.59-13.72,2.72s-8.99,2.47-13.39,4.03c2.48-.95,4.97-1.83,7.5-2.66s5.06-1.59,7.61-2.3c2.56-.7,5.13-1.35,7.72-1.94,2.58-.58,5.19-1.1,7.8-1.57s5.24-.82,7.88-1.06,5.29-.38,7.94-.4,5.3,.08,7.95,.28c2.64,.2,5.28,.52,7.9,.95m18.84,6.67c8.81,1.76,17.36,4.65,25.43,8.59,4.03,1.97,7.93,4.2,11.68,6.67,3.74,2.47,7.33,5.17,10.73,8.1-3.47-2.84-7.09-5.46-10.86-7.88-3.77-2.41-7.68-4.6-11.7-6.57-4.02-1.96-8.15-3.69-12.38-5.18s-8.53-2.73-12.9-3.71M87.23,248.07c.19-.31,.59-.33,1.05-.23,.09,.05,.18,.1,.28,.14,.09,.04,.19,.08,.29,.11,.2,.07,.4,.12,.61,.15,1.05,1.06,2.13,2.09,3.22,3.11,1.09,1.02,2.2,2.01,3.32,2.99,1.13,.97,2.27,1.93,3.43,2.86,1.17,.93,2.35,1.84,3.54,2.73-.72-.22-1.44-.48-2.14-.75-.35-.14-.7-.28-1.05-.43-.34-.15-.69-.3-1.03-.46-.48-.4-.96-.81-1.42-1.23s-.92-.85-1.36-1.29c-.45-.44-.89-.89-1.31-1.35-.43-.46-.85-.93-1.25-1.41-.46-.48-.93-.94-1.42-1.39s-1-.88-1.52-1.29c-.52-.41-1.06-.8-1.61-1.18s-1.11-.73-1.68-1.07M29.18,140.28l-.11-.48c.19-1.48,.36-2.95,.6-4.4l.21-.51c-.21,1.8-.44,3.59-.7,5.38h0Zm52.64,102.4c.12-.13,.23-.27,.33-.41,.19-.29,.34-.61,.44-.95,.04-.16,.08-.34,.11-.51,2.13,2.54,4.36,4.92,6.72,7.38-.09-.04-.18-.08-.28-.11-.09-.04-.19-.07-.28-.1-.09-.03-.19-.06-.28-.08l-.29-.08c-2.01-1.09-4.06-4-6.46-5.15m-26.3-68.58c-.11-.42-.24-.84-.39-1.25-.14-.41-.31-.82-.48-1.22-.18-.4-.38-.79-.59-1.17-.21-.38-.45-.76-.69-1.12,.67-5.43,1.64-10.74,2.92-16.85-.26-1.02,0-3.04-.46-5.06,.19-.26,.38-.53,.56-.8s.36-.54,.53-.82c.18-.27,.35-.55,.51-.83,.17-.28,.33-.56,.5-.84-.7,3.43-1.25,6.89-1.62,10.37-.38,3.48-.6,6.97-.65,10.48-.05,3.5,.06,7,.33,10.49,.27,3.49,.71,6.96,1.3,10.42-.23-.98-.45-1.96-.64-2.94-.19-.98-.36-1.97-.51-2.96-.14-.99-.27-1.98-.38-2.98s-.19-1.99-.24-3"/><path class="d" d="M286.73,155.03c.28,2.84,.43,5.69,.45,8.55,.03,2.85-.07,5.71-.28,8.56-.22,2.84-.56,5.68-1.02,8.5-.46,2.82-1.04,5.61-1.74,8.38-2.62,11.33-6.46,22.1-9.61,32.46,6.81-10.64,12.25-24.93,15.32-37.15s4.53-22.3,7.51-24.41c2.99-2.1,3.83,7.33,1.83,19.81-.28,1.66-.58,3.32-.92,4.96-.34,1.65-.71,3.29-1.11,4.92-.4,1.64-.84,3.26-1.3,4.88s-.97,3.22-1.49,4.82c-2.1,6.57-4.56,12.55-6.56,17.47q1.64-2.35,3.28-4.77c-.42,.54-.82,1.1-1.18,1.68-.37,.58-.7,1.18-1,1.8-.3,.61-.57,1.25-.8,1.89s-.43,1.3-.6,1.97c.53-.75,1.05-1.52,1.56-2.28,.51-.77,1-1.55,1.49-2.33,.48-.78,.96-1.57,1.42-2.37,.46-.8,.91-1.6,1.35-2.41,.35-.71,.73-1.41,1.12-2.09s.8-1.36,1.22-2.03c.43-.66,.87-1.31,1.34-1.95s.95-1.26,1.44-1.88c0,1.79,0,3.59-.1,5.41,4.48-6.45,8.45-16.93,10.94-27.89s3.64-22.3,5.1-30.49c-.41,5.18-1,10.35-1.79,15.49-.79,5.14-1.78,10.25-2.94,15.31-1.17,5.07-2.53,10.09-4.07,15.05s-3.27,9.87-5.18,14.71c-2.06,5.19-4.38,10.27-6.94,15.23-2.57,4.96-5.38,9.78-8.42,14.46-6.1,9.36-13.11,18.09-20.92,26.07-8.15,8.3-17.22,15.63-27.03,21.86-9.82,6.23-20.32,11.31-31.29,15.15-5.46,1.91-11.02,3.48-16.67,4.72-11.3,2.48-22.86,3.59-34.43,3.31-5.78-.14-11.54-.63-17.26-1.46-12.24-1.51-24.27-4.35-35.89-8.49-11.62-4.14-22.74-9.54-33.17-16.11-20.93-13.18-38.7-30.82-52.04-51.66-1.69-3.06-3.2-6.2-4.55-9.42-.68-1.61-1.3-3.24-1.89-4.88-.58-1.64-1.13-3.3-1.63-4.97-.63-2.05-1.22-4.11-1.77-6.2-.54-2.08-1.03-4.17-1.49-6.27-.45-2.11-.85-4.22-1.2-6.34-.35-2.12-.65-4.25-.91-6.38-1.24-6.87-2.09-13.81-2.52-20.77-.44-6.96-.46-13.95-.08-20.92,.38-6.97,1.17-13.91,2.36-20.79,1.2-6.87,2.79-13.68,4.79-20.37,2.4-7.09,5.33-13.98,8.76-20.63,3.43-6.64,7.36-13.02,11.74-19.08,4.39-6.06,9.23-11.78,14.47-17.12,5.24-5.33,10.88-10.27,16.86-14.76,6.17-4.64,12.65-8.85,19.38-12.61,6.74-3.77,13.72-7.08,20.9-9.91,7.18-2.83,14.54-5.18,22.03-7.03,7.49-1.84,15.1-3.19,22.78-4.01,6.33-.77,13.94,.47,15.92,2.2,1.02,.83,.66,1.74-1.84,2.58-1.19,.31-2.38,.61-3.58,.89-1.2,.28-2.4,.53-3.61,.77s-2.41,.46-3.63,.66c-1.21,.2-2.43,.38-3.64,.54-12.19,2.31-24.11,5.83-35.6,10.51-5.73,2.34-11.35,4.96-16.83,7.87-5.48,2.9-10.8,6.07-15.96,9.51,.67-1.64,3.64-3.79,7.05-5.92,.81-.46,1.62-.94,2.41-1.43,.8-.48,1.59-.98,2.38-1.49,.78-.51,1.56-1.03,2.33-1.56,.77-.53,1.53-1.07,2.28-1.62-2.02,.84-4.01,1.73-5.99,2.67s-3.93,1.93-5.85,2.97c-1.93,1.04-3.83,2.13-5.7,3.26s-3.71,2.31-5.52,3.54c-1.79,1.22-3.56,2.49-5.28,3.8-1.73,1.31-3.42,2.67-5.08,4.06-1.66,1.4-3.29,2.84-4.87,4.32s-3.13,3-4.64,4.55c2.13-2.2,4.31-4.33,6.56-6.41,2.25-2.07,4.55-4.08,6.92-6.02,2.36-1.94,4.79-3.81,7.26-5.61s4.99-3.53,7.56-5.19c-6.71,4.27-13.1,9.04-19.11,14.26-6.02,5.21-11.63,10.86-16.8,16.91-2.7,3.16-5.26,6.44-7.67,9.82-2.42,3.38-4.69,6.86-6.81,10.43-2.12,3.57-4.09,7.23-5.9,10.97s-3.46,7.55-4.95,11.43c-2.26,5.63-5.56,10.5-8.29,16.41-.81,1.68-1.51,3.42-2.08,5.21s-1.03,3.6-1.35,5.44c-.33,1.84-.52,3.71-.59,5.58-.07,1.87-.01,3.74,.18,5.6,2.07-10.77,5.24-21.31,9.47-31.43,2.11-5.06,4.48-10.01,7.1-14.83,2.62-4.82,5.48-9.5,8.57-14.02,6.19-9.03,13.22-17.44,21.01-25.13,3.89-3.84,7.97-7.49,12.21-10.93,4.24-3.45,8.64-6.69,13.2-9.72-.01,.02-.03,.04-.03,.06-.01,.02-.03,.04-.03,.06-.01,.02-.02,.04-.03,.06-.01,.02-.02,.04-.03,.06,3.85-2.62,7.83-5.06,11.91-7.3s8.26-4.3,12.53-6.15c4.27-1.85,8.63-3.51,13.05-4.96,4.43-1.45,8.92-2.69,13.46-3.72-5.65,1.64-11.22,3.58-16.17,4.92,6.44-1.86,12.97-3.34,19.58-4.43,6.61-1.09,13.28-1.79,19.97-2.09,6.69-.29,13.39-.2,20.07,.29s13.32,1.39,19.9,2.67c-4.71-.5-9.44-.82-14.17-.94-4.74-.13-9.48-.06-14.21,.19-4.73,.25-9.45,.7-14.14,1.32-4.7,.63-9.36,1.46-13.99,2.46-4.7,1.02-9.36,2.26-13.96,3.7-4.59,1.45-9.12,3.1-13.57,4.96-4.44,1.86-8.8,3.92-13.06,6.17-4.25,2.25-8.41,4.7-12.44,7.33s-7.94,5.47-11.7,8.49c-3.76,3.02-7.37,6.22-10.82,9.58-3.46,3.37-6.74,6.9-9.85,10.59-3.1,3.69-6.03,7.52-8.77,11.49-2.67,3.89-5.14,7.9-7.4,12.04-2.26,4.14-4.3,8.39-6.12,12.74-3.64,8.7-6.37,17.76-8.15,27.02,3.74-9.84,7.18-21.13,12.07-31.73,4.89-10.59,11.04-20.25,18.04-26-5.21,6.6-9.85,13.62-13.89,20.99-12.16,22.23-18.51,47.17-18.46,72.51l-.84-7.55c-.31,2.73-.5,5.48-.59,8.22-.08,2.75-.04,5.51,.1,8.25,.14,2.75,.41,5.49,.78,8.22,.38,2.72,.86,5.43,1.46,8.12s1.26,5.36,1.99,8.02c.73,2.65,1.52,5.29,2.37,7.91s1.77,5.21,2.74,7.79c.98,2.57,2.02,5.12,3.12,7.65,.74,1.79,1.47,3.56,2.3,5.31l-2.3-5.31c-1.83-4.48-3.44-9.05-4.82-13.69-1.39-4.64-2.55-9.34-3.49-14.09s-1.64-9.54-2.11-14.36-.71-9.65-.72-14.49c.98,8.66,1.93,17.76,3.95,28.59,0-6.07-.93-14.53-.9-22.96-.16-2.76-.24-5.52-.24-8.29s.09-5.52,.26-8.28,.42-5.51,.75-8.25,.75-5.48,1.25-8.19c-.63,4.01-1.05,8.07-1.25,12.12s-.18,8.13,.06,12.19,.69,8.1,1.36,12.11c.67,4.01,1.56,7.98,2.65,11.9-2.72-22.37-1.08-45.93,6.56-67.06-.88,2.93-1.66,5.88-2.35,8.86-.68,2.98-1.26,5.98-1.74,8.99s-.86,6.05-1.14,9.09c-.28,3.04-.46,6.09-.53,9.15-.39,5.18-.48,10.38-.28,15.57s.71,10.37,1.51,15.5c.8,5.14,1.9,10.22,3.28,15.23,1.39,5.01,3.06,9.94,5.01,14.75l-.95-2.2c.6,1.47,1.29,2.94,1.96,4.41,.83,1.91,1.69,3.8,2.6,5.66,.91,1.87,1.86,3.71,2.85,5.54,1.99,3.65,4.15,7.2,6.47,10.65,1.09,1.49,2.22,2.95,3.4,4.36,1.19,1.42,2.42,2.79,3.69,4.12,1.28,1.33,2.61,2.61,3.98,3.85,1.37,1.24,2.78,2.42,4.23,3.56l2.58,2.57c-2.02-1.23-3.28-1.64-.31,1.81,1.67,1.88,3.42,3.68,5.24,5.41,1.82,1.74,3.71,3.39,5.66,4.97,1.96,1.57,3.98,3.07,6.05,4.48s4.21,2.74,6.4,3.98c8.95,5.34,18.63,9.84,28.75,14.63,1.7,.72,3.43,1.36,5.18,1.94s3.53,1.09,5.32,1.53c1.79,.44,3.59,.82,5.41,1.12s3.65,.54,5.49,.7c.35,.16,.72,.3,1.1,.4,.38,.1,.77,.17,1.15,.21s.78,.04,1.17,0c.4-.03,.78-.1,1.16-.2,1.82,.14,3.67,.24,5.51,.33,1.12,.11,2.23,.19,3.34,.26,1.12,.06,2.24,.09,3.36,.1,1.12,.01,2.23,0,3.35-.04,1.12-.04,2.24-.11,3.35-.19-4.36,0-8.89,0-13.4-.12l-5.02-.44c.4-.14,.79-.26,1.2-.36,.41-.09,.82-.17,1.23-.22s.83-.08,1.25-.08c.41,0,.83,.01,1.25,.06-3.87-.44-7.72-1.04-11.54-1.81-3.81-.77-7.6-1.69-11.34-2.78s-7.43-2.33-11.06-3.73c-3.63-1.4-7.21-2.95-10.71-4.65-3.57-1.73-7.06-3.61-10.47-5.62s-6.74-4.16-9.98-6.45c-3.24-2.28-6.39-4.7-9.43-7.23-3.04-2.54-5.98-5.2-8.81-7.98,1.64,1,3.99,2.51,5.04,3-2.61-1.74-5.12-3.63-7.61-5.58-1.8-1.85-3.55-3.74-5.26-5.68-1.7-1.94-3.36-3.92-4.96-5.94-3.21-4.04-6.21-8.24-8.99-12.59,.43,.57,.87,1.14,1.32,1.69,.46,.55,.93,1.09,1.41,1.61,.49,.52,.99,1.03,1.51,1.52s1.04,.98,1.58,1.44c-2.03-3.04-3.93-6.15-5.73-9.33s-3.47-6.43-5.02-9.73-2.97-6.67-4.27-10.09c-1.3-3.41-2.47-6.88-3.5-10.38-1.03-3.53-1.93-7.09-2.69-10.68s-1.37-7.22-1.86-10.86c-.48-3.64-.82-7.3-1.01-10.97-.2-3.67-.25-7.34-.17-11.01,.52-6.8,1.54-13.55,3.07-20.19,1.52-6.64,3.53-13.17,6.01-19.51,2.49-6.35,5.44-12.5,8.84-18.41,3.39-5.91,7.23-11.56,11.46-16.9-2.62,2.77-5.09,5.68-7.41,8.71s-4.47,6.18-6.45,9.45c-1.98,3.26-3.79,6.62-5.41,10.07-1.62,3.46-3.07,6.99-4.32,10.59,1.51-5.04,3.32-9.99,5.42-14.82,2.1-4.83,4.48-9.53,7.14-14.08,2.65-4.55,5.58-8.93,8.75-13.13,3.17-4.2,6.59-8.2,10.24-12,3.63-3.79,7.5-7.34,11.57-10.66,4.08-3.31,8.35-6.35,12.81-9.13,4.45-2.77,9.08-5.27,13.84-7.47,4.76-2.2,9.66-4.1,14.66-5.7-6.36,4.53-14.76,10.37-17.27,15.09,.88,.88,12.35-4.3,6.17-.29-10.94,7.71-19.76,14.6-26.24,21.32-6.47,6.72-10.43,13.12-10.51,19.43,.23,1.37,6.05-2.3,11.48-4.58,5.43-2.28,10.04-3.51,7.58-.16-1.76,2.02-3.46,4.09-5.09,6.21s-3.21,4.29-4.72,6.5-2.95,4.47-4.32,6.77c-1.37,2.3-2.67,4.64-3.91,7.02-.51,.83-1.01,1.66-1.5,2.5-.48,.85-.95,1.7-1.41,2.57-.91,1.72-1.75,3.48-2.52,5.26-.07,.2-.13,.41-.18,.62-.04,.21-.08,.42-.09,.63-.02,.21-.02,.43,0,.64,.01,.21,.04,.43,.08,.63-.96,2.73-1.84,5.48-2.63,8.26-.8,2.78-1.5,5.59-2.11,8.41-1.24,5.65-2.12,11.37-2.63,17.14-.33,2.74-.5,5.46-.58,8.2-.08,.33-.17,.65-.28,.97-.11,.31-.22,.63-.35,.94-.13,.31-.26,.61-.41,.92s-.31,.6-.48,.88c.64,1.72,1.18,3.42,1.64,5.11,.1,1.83,.24,3.64,.45,5.45s.45,3.62,.75,5.42c.3,1.8,.65,3.59,1.05,5.37,.4,1.78,.84,3.54,1.34,5.3,.14,1.02,.29,2.04,.46,3.05s.36,2.03,.57,3.04c.21,1,.43,2.01,.68,3.01,.24,1,.5,1.99,.78,2.99,.41-.28,.74-1.15,1.47-.64,.88,2.11,1.83,4.18,2.85,6.22,1.02,2.04,2.1,4.05,3.26,6.03,1.15,1.97,2.36,3.9,3.63,5.8,1.28,1.89,2.62,3.74,4.01,5.54,.44,.77,.87,1.55,1.28,2.33s.81,1.57,1.19,2.38c.39,.8,.76,1.61,1.11,2.41,.36,.81,.7,1.63,1.03,2.45,5.05,2.16,11.23,7.5,18.58,12.63,1.78,1.32,3.61,2.58,5.49,3.78,1.87,1.19,3.79,2.31,5.74,3.37s3.94,2.04,5.97,2.96c2.02,.92,4.08,1.76,6.16,2.53v-.13c1.88,.73,3.78,1.42,5.7,2.06,1.91,.63,3.84,1.22,5.8,1.74,3.89,1.07,7.84,1.92,11.82,2.57,.31,.14,.63,.29,.93,.45,.31,.16,.61,.31,.92,.48,.31,.16,.61,.33,.9,.5,.3,.17,.6,.34,.89,.53,2.11-.49,4.23-.36,5.28-.67,6.55,.98,12.08,1.76,17.82,2.16,.38-.27,.76-.52,1.15-.76,.79-.47,1.61-.87,2.47-1.2,.43-.16,.87-.31,1.3-.44,2.09-.23,4.16-.54,6.22-.95,1.03-.2,2.06-.42,3.08-.66,1.02-.24,2.03-.51,3.04-.8,1.19-.27,2.36-.55,3.53-.85,1.17-.3,2.35-.62,3.51-.95,1.17-.33,2.32-.68,3.47-1.05,1.15-.36,2.3-.75,3.44-1.15,3.9-1.37,7.73-2.94,11.47-4.69,7.49-3.52,14.6-7.8,21.22-12.76,3.31-2.48,6.49-5.13,9.52-7.93,.18,.01,.35,.03,.52,.07,.18,.04,.34,.09,.51,.15,.16,.06,.33,.13,.48,.21,.16,.09,.31,.18,.45,.29,1.12-2.52,4.04-4.81,5.09-6.97-.1,.5,0,.88,.28,1.05,.34-.61,.69-1.22,1.07-1.81,.38-.58,.77-1.16,1.18-1.72,.41-.56,.84-1.12,1.29-1.65,.45-.54,.91-1.06,1.39-1.56,.47-.46,.93-.92,1.39-1.39,.46-.47,.9-.95,1.34-1.44,.43-.5,.86-.99,1.27-1.51,.41-.51,.82-1.02,1.21-1.55,.16-.36,.3-.72,.44-1.09,.14-.36,.28-.73,.4-1.1,.12-.37,.24-.74,.34-1.12,.11-.38,.21-.75,.31-1.13,.44-.64,.85-1.3,1.26-1.94,6.4-5.63,8.61-13.63,11.07-22.13,.8-2.11,1.54-4.25,2.22-6.4,.68-2.16,1.3-4.33,1.85-6.53,.56-2.19,1.05-4.4,1.48-6.62,.43-2.22,.8-4.45,1.1-6.69,.84-7.15,2.71-9.99,3.68-15.22"/><path class="d" d="M104.79,261.2c1.61,1.15,3.25,2.25,4.92,3.31s3.36,2.08,5.08,3.05c1.72,.97,3.46,1.9,5.23,2.78s3.56,1.72,5.36,2.52c-8-2.72-15.57-5.14-20.59-11.62m-14.17-177.99c.8-.26,1.61-.53,2.4-.83,.8-.29,1.59-.6,2.36-.92,.78-.32,1.56-.65,2.33-1,.77-.35,1.53-.72,2.28-1.1-3.8,2.7-7.42,5.65-10.83,8.83s-6.6,6.59-9.56,10.2c-2.95,3.61-5.66,7.41-8.1,11.38-2.45,3.98-4.62,8.1-6.51,12.37h-.15c.83-1.94,1.73-3.86,2.7-5.75,.97-1.89,1.99-3.74,3.09-5.54,1.1-1.81,2.26-3.58,3.48-5.31,1.22-1.72,2.51-3.41,3.85-5.05,5.19-6.79,10.51-12.45,12.72-17.24m-2.47,164.54l.28,.08c.09,.03,.19,.05,.29,.08s.19,.06,.28,.09c.09,.03,.18,.07,.28,.1-.1-.02-.21-.04-.31-.06s-.2-.06-.3-.09c-.2-.07-.39-.16-.57-.26M111.84,39.84l2.15-.78c-2.66,1.17-5.28,2.41-7.86,3.73-1.29,.66-2.57,1.34-3.84,2.03s-2.53,1.41-3.79,2.14c1.05-.71,2.11-1.39,3.19-2.04,1.08-.65,2.18-1.27,3.29-1.87,1.12-.6,2.25-1.16,3.39-1.69,1.15-.54,2.3-1.04,3.47-1.52m61.2-7.23c2.93,.2,5.86,.5,8.77,.89s5.81,.89,8.69,1.49c2.88,.59,5.74,1.28,8.57,2.06,2.84,.79,5.64,1.67,8.41,2.65,3.4,1.37,6.73,2.91,9.97,4.64,3.24,1.72,6.38,3.61,9.42,5.66,3.04,2.05,5.97,4.26,8.77,6.62s5.48,4.87,8.02,7.51c-4.94-4.3-10.19-8.22-15.71-11.74-5.51-3.52-11.29-6.63-17.26-9.3-5.98-2.67-12.14-4.89-18.45-6.64-6.31-1.76-12.73-3.04-19.22-3.85m-50.61,33.26c.95-.21,1.91-.4,2.88-.58,.96-.18,1.93-.34,2.89-.48,1.94-.29,3.89-.51,5.84-.67-.94,.22-1.87,.45-2.8,.7-.93,.25-1.86,.51-2.78,.78-.92,.27-1.84,.56-2.75,.86-.91,.3-1.82,.61-2.72,.94,.51-.7-.31-1.1-.56-1.52m-50.59,.87l2.59-2.38c-1.96,2.33-3.87,4.68-5.66,7.12,.55-1,2.05-3.15,3.07-4.74h0Zm91.33-4.84c-2.79-.23-5.59-.33-8.38-.28,1.64-.4,3.28-.84,4.92-1.41,.26,.18,.53,.35,.81,.51,.28,.16,.56,.31,.85,.45,.29,.14,.58,.26,.88,.38,.3,.12,.6,.22,.91,.31m41.93,9.7c.83,.4,1.66,.82,2.48,1.26,.82,.44,1.62,.89,2.43,1.36,.8,.47,1.59,.95,2.37,1.46,.78,.5,1.55,1.02,2.31,1.55-.97-.55-1.95-1.09-2.94-1.61s-1.98-1.02-2.98-1.51c-1-.49-2.01-.97-3.02-1.42-1.02-.46-2.04-.9-3.07-1.33,1.12,0,2.05,0,2.41,.24"/></g></g></g></svg>